<?xml version="1.0" standalone="yes"?>
<svg xmlns="http://www.w3.org/2000/svg" width="180" height="180">
<path style="fill:#000000; stroke:none;" d="M0 0L0 180L180 180L180 0L0 0z"/>
<path style="fill:#00ffff; stroke:none;" d="M143 15L144 16L143 15z"/>
<path style="fill:#65a784; stroke:none;" d="M144 15C145.248 15.6848 145.548 15.7488 147 16C145.752 15.3152 145.452 15.2512 144 15z"/>
<path style="fill:#3ca872; stroke:none;" d="M141 17C145.314 18.5174 146.882 19.8036 149 24C150.526 18.4234 145.94 15.6883 141 17z"/>
<path style="fill:#0ce163; stroke:none;" d="M140 20C141.66 21.5835 146.455 22.2499 143 24L146 35C146.874 32.9479 146.953 31.2528 147 29C148.479 29.9857 148.203 30 150 30C149.61 24.9976 147.787 21.5781 146 17C143.597 17.6285 142.042 18.5619 140 20z"/>
<path style="fill:#25b972; stroke:none;" d="M129 28C134.257 25.9669 138.253 21.9658 143 19C137.915 17.9196 131.508 23.8792 129 28z"/>
<path style="fill:#09a84b; stroke:none;" d="M146.333 18.6667C146.278 18.7222 146.222 19.7778 146.667 19.3333C146.722 19.2778 146.778 18.2222 146.333 18.6667z"/>
<path style="fill:#1dcb6a; stroke:none;" d="M134 26C138.322 26.329 140.079 25.3006 141 21C137.801 22.0861 136.089 23.3485 134 26z"/>
<path style="fill:#00eb60; stroke:none;" d="M140 26L144 26C144 23.9147 143.862 24.2759 146 24C146 22.2032 145.986 22.4785 145 21C142.079 22.1033 141.103 23.0785 140 26z"/>
<path style="fill:#40b571; stroke:none;" d="M150.333 24.6667C150.278 24.7222 150.222 25.7778 150.667 25.3333C150.722 25.2778 150.778 24.2222 150.333 24.6667z"/>
<path style="fill:#37af6e; stroke:none;" d="M117 30C121.542 31.7549 126.814 29.3596 130 26L117 30z"/>
<path style="fill:#08d765; stroke:none;" d="M71 45C69.2032 45 69.4785 45.0143 68 46C71.9758 48.2643 77.6073 44.4489 82 43.7778C89.372 42.6515 96.6869 40.0144 104 39.0833C110.729 38.2266 117.342 39.1454 124 37.1111C126.576 36.3241 139.88 30.9553 137 29C138.801 28.4382 140.122 28.1759 142 28C134.775 23.1508 126.912 29.2955 119.961 31.7593C108.61 35.7825 96.43 34.3476 85.0147 37.4244C80.379 38.6738 72.0341 39.8283 71 45z"/>
<path style="fill:#17e374; stroke:none;" d="M140 26C141.364 27.8191 141.492 27.031 141 29C142.797 29 142.521 28.9857 144 28C142.457 26.7333 141.952 26.5108 140 26z"/>
<path style="fill:#04b24f; stroke:none;" d="M150 26L149 29C150.766 28.0214 150.955 27.7782 150 26z"/>
<path style="fill:#24b767; stroke:none;" d="M151 26C151.11 28.442 151.428 30.6229 152 33C152.965 30.2945 152.466 28.45 151 26z"/>
<path style="fill:#29e97a; stroke:none;" d="M137.667 28.3333C137.222 28.7778 138.278 28.7222 138.333 28.6667C138.778 28.2222 137.722 28.2777 137.667 28.3333z"/>
<path style="fill:#3ea86a; stroke:none;" d="M139 28C136.658 31.1551 133.169 32.817 131 36C135.68 34.9001 139.541 32.7452 141 28L139 28z"/>
<path style="fill:#21b362; stroke:none;" d="M141 30C143.757 32.9062 144.444 36.36 146 40C147.61 35.8648 145.518 31.9424 144 28C142.612 28.6913 142.139 28.9846 141 30z"/>
<path style="fill:#0ac866; stroke:none;" d="M147 29C147 37.793 148.995 46.228 149.83 55C150.245 59.3609 149.396 63.282 152 67C148.691 70.5279 148.372 75.2975 148 80C149.062 78.3068 149.52 76.9596 150 75L151 77C157.756 62.9699 156.209 43.2876 151 29L147 29z"/>
<path style="fill:#08ac55; stroke:none;" d="M122.667 30.3333C122.222 30.7778 123.278 30.7222 123.333 30.6667C123.778 30.2223 122.722 30.2777 122.667 30.3333z"/>
<path style="fill:#00ff00; stroke:none;" d="M141 30L142 31L141 30z"/>
<path style="fill:#46ae74; stroke:none;" d="M108 32C111.082 33.2818 113.792 32.7625 117 32C113.999 30.8284 111.159 31.6022 108 32z"/>
<path style="fill:#0eac55; stroke:none;" d="M115 32C117.393 32.7408 119.493 32.3022 122 32C119.477 31.0098 117.642 31.3831 115 32z"/>
<path style="fill:#669966; stroke:none;" d="M143.333 31.6667C143.278 31.7222 143.222 32.7778 143.667 32.3333C143.722 32.2778 143.778 31.2222 143.333 31.6667z"/>
<path style="fill:#2fa466; stroke:none;" d="M153 31C153.003 35.2834 152.312 40.1926 156 43C155.808 38.7909 155.02 34.7165 153 31z"/>
<path style="fill:#1abc67; stroke:none;" d="M107 32C104.943 33.5819 103.612 33.8256 101 34C105.167 35.7446 109.622 34.3455 114 34C111.767 32.9906 109.396 32.5948 107 32z"/>
<path style="fill:#189c50; stroke:none;" d="M134.667 32.3333C134.222 32.7778 135.278 32.7222 135.333 32.6667C135.778 32.2222 134.722 32.2777 134.667 32.3333z"/>
<path style="fill:#40ad76; stroke:none;" d="M70 40C74.0494 41.4486 77.9848 39.3242 82 38.3326C90.1486 36.32 98.5841 34.3613 107 34C103.41 32.5078 99.7729 33.4818 96 34C87.0971 35.2228 78.6267 37.552 70 40z"/>
<path style="fill:#16aa59; stroke:none;" d="M127 35C129.044 35.7744 129.845 35.5922 132 35C130.057 34.3782 129.051 34.5642 127 35z"/>
<path style="fill:#09b65f; stroke:none;" d="M95 35C96.769 35.7789 98.0359 35.9124 100 36C98.231 35.2211 96.9641 35.0876 95 35z"/>
<path style="fill:#4da673; stroke:none;" d="M88 43C91.9321 44.6463 95.8711 43.4175 100 43.0856C110.641 42.2303 120.846 40.3029 131 37C125.988 35.0444 119.983 38.1973 115 39.4707C106.365 41.6772 96.8924 42.2982 88 43z"/>
<path style="fill:#00ff00; stroke:none;" d="M75 38L76 39L75 38z"/>
<path style="fill:#1aad5d; stroke:none;" d="M116 38C117.506 38.683 118.315 38.8259 120 39C118.494 38.317 117.685 38.1741 116 38z"/>
<path style="fill:#509f70; stroke:none;" d="M145.333 38.6667C145.278 38.7222 145.222 39.7778 145.667 39.3333C145.722 39.2777 145.778 38.2223 145.333 38.6667z"/>
<path style="fill:#04a34d; stroke:none;" d="M78.6667 39.3333C78.2222 39.7778 79.2778 39.7222 79.3333 39.6667C79.7778 39.2222 78.7222 39.2778 78.6667 39.3333z"/>
<path style="fill:#0ac55e; stroke:none;" d="M99 42C103.443 41.2478 107.438 40.0408 112 40C107.884 38.2728 101.743 38.1181 99 42z"/>
<path style="fill:#189a51; stroke:none;" d="M112 39C113.248 39.6848 113.548 39.7488 115 40C113.752 39.3152 113.452 39.2512 112 39z"/>
<path style="fill:#0aac4f; stroke:none;" d="M74.6667 40.3333C74.2222 40.7778 75.2778 40.7222 75.3333 40.6667C75.7777 40.2222 74.7222 40.2778 74.6667 40.3333z"/>
<path style="fill:#1daa5e; stroke:none;" d="M104 40C106.613 41.0977 109.164 40.9928 112 41C109.387 39.9023 106.836 40.0072 104 40z"/>
<path style="fill:#36b975; stroke:none;" d="M146 40C146.021 42.8495 146.19 45.271 147 48C148.157 45.0335 147.62 42.705 146 40z"/>
<path style="fill:#21c471; stroke:none;" d="M147 40L149 56C150.622 51.4784 149 44.9161 149 40L147 40z"/>
<path style="fill:#59b380; stroke:none;" d="M61 44C64.6622 45.1082 67.4546 43.6738 70 41C66.8822 41.7395 63.9873 42.8486 61 44z"/>
<path style="fill:#17c566; stroke:none;" d="M54 52C55.4566 53.1034 55.8966 53.5434 57 55C59.6172 54.0472 60.4586 53.6984 61 51C65.3469 50.7634 68.7714 48.575 73 48C71.231 47.2211 69.9641 47.0876 68 47C69.1863 45.8137 69.5838 45.4721 71 45C71.1306 43.3595 71.3693 42.5438 72 41C65.6508 43.5039 58.3357 46.612 54 52z"/>
<path style="fill:#02a54c; stroke:none;" d="M93 41C95.0521 41.8742 96.7472 41.9528 99 42C96.9479 41.1258 95.2528 41.0472 93 41z"/>
<path style="fill:#0fa659; stroke:none;" d="M88 42C89.769 42.7789 91.0359 42.9124 93 43C91.231 42.2211 89.9641 42.0876 88 42z"/>
<path style="fill:#00ffff; stroke:none;" d="M106 42L107 43L106 42z"/>
<path style="fill:#15b558; stroke:none;" d="M75 45C79.1009 46.6006 83.7876 44.8169 88 44C84.0428 42.4554 78.9844 43.7893 75 45z"/>
<path style="fill:#12a460; stroke:none;" d="M155 43C155 52.0992 154.714 60.9526 154 70C157.847 64.9226 157.447 48.8316 155 43z"/>
<path style="fill:#51a16b; stroke:none;" d="M85 44C86.2484 44.6848 86.5484 44.7488 88 45C86.7517 44.3152 86.4515 44.2512 85 44z"/>
<path style="fill:#309768; stroke:none;" d="M156 44C156 53.763 155.766 63.2908 155 73C158.661 66.8879 158.741 50.5316 156 44z"/>
<path style="fill:#46ac72; stroke:none;" d="M57 47C59.3701 47.5886 60.7068 46.9546 63 46C60.5379 45.3032 59.3346 45.8896 57 47z"/>
<path style="fill:#55aa7f; stroke:none;" d="M80 45C81.506 45.683 82.3148 45.8259 84 46C82.4939 45.317 81.6852 45.1741 80 45z"/>
<path style="fill:#49a872; stroke:none;" d="M66 50C70.5035 51.249 75.4505 47.7834 80 47C74.9914 44.9145 70.6461 48.1571 66 50z"/>
<path style="fill:#808080; stroke:none;" d="M76 47L77 48L76 47M146 47L147 48L146 47z"/>
<path style="fill:#369f6e; stroke:none;" d="M41 63C46.7854 59.2189 52.8571 53.5306 57 48C50.4379 50.7784 44.0202 56.5236 41 63z"/>
<path style="fill:#189a4f; stroke:none;" d="M68.6667 48.3333C68.2222 48.7778 69.2778 48.7222 69.3333 48.6667C69.7778 48.2222 68.7222 48.2777 68.6667 48.3333z"/>
<path style="fill:#459d76; stroke:none;" d="M147 48C147 58.8865 145.852 69.2033 145 80C149.111 74.0164 148 64.961 148 58C148 54.5814 148.328 51.1656 147 48z"/>
<path style="fill:#109d4e; stroke:none;" d="M61.6667 51.3333C61.2223 51.7778 62.2778 51.7222 62.3333 51.6667C62.7778 51.2222 61.7222 51.2778 61.6667 51.3333z"/>
<path style="fill:#609f70; stroke:none;" d="M61 54L67 52C64.1858 51.0875 63.0173 51.9265 61 54z"/>
<path style="fill:#05ce72; stroke:none;" d="M52 52L52 56L57 56C56.0317 53.0359 55.0661 52.4971 52 52z"/>
<path style="fill:#34b479; stroke:none;" d="M148 53L148 64C149.431 60.59 149.431 56.41 148 53z"/>
<path style="fill:#16bf6e; stroke:none;" d="M35 77L39 76C40.2282 68.5419 48.3033 60.1924 55 57L52 54C43.5499 57.9998 35.9741 67.567 35 77z"/>
<path style="fill:#4a9f75; stroke:none;" d="M52 61L61 55C56.7017 54.3015 53.7896 57.3619 52 61z"/>
<path style="fill:#00ffff; stroke:none;" d="M61 54L62 55L61 54z"/>
<path style="fill:#0eaf69; stroke:none;" d="M149 56C148.883 70.1233 145.446 83.394 139.258 95.9992C137.311 99.9637 131.884 105.962 138 108C141.85 101.756 145.3 95.8501 148 89C143.808 89 147.233 84.3994 147.833 82C149.21 76.4938 148.275 71.7186 152 67C150.006 63.4142 150.524 59.6296 149 56z"/>
<path style="fill:#29a062; stroke:none;" d="M48 64C50.6631 61.95 52.3118 59.9086 54 57C50.6238 58.6625 49.2198 60.4451 48 64z"/>
<path style="fill:#25945e; stroke:none;" d="M39 76L48 64C42.2292 65.6378 39.7195 70.2619 39 76z"/>
<path style="fill:#34a16e; stroke:none;" d="M38 65L37 69C38.6556 67.5957 38.7511 67.0465 38 65z"/>
<path style="fill:#407f6a; stroke:none;" d="M42 71C43.7525 69.6697 44.6697 68.7525 46 67C43.7511 68.1535 43.1536 68.7511 42 71z"/>
<path style="fill:#00ff00; stroke:none;" d="M36 68L37 69L36 68z"/>
<path style="fill:#1fb669; stroke:none;" d="M153 68L152 77C153.57 74.0465 154.231 71.155 153 68z"/>
<path style="fill:#429d73; stroke:none;" d="M36 69C30.5622 78.3183 25.7945 90.0236 27 101C30.5577 94.9533 30.1167 86.6648 32.544 80C33.8664 76.3691 36.6494 72.8991 36 69z"/>
<path style="fill:#1e915b; stroke:none;" d="M154 70C153.284 73.4773 152.434 76.4809 153 80C154.005 77.85 154.53 75.882 156 74C155.404 72.4399 154.911 71.3766 154 70z"/>
<path style="fill:#00ff00; stroke:none;" d="M156 70L157 71L156 70z"/>
<path style="fill:#009656; stroke:none;" d="M38.3333 73.6667C38.2778 73.7222 38.2222 74.7778 38.6667 74.3333C38.7223 74.2777 38.7778 73.2222 38.3333 73.6667z"/>
<path style="fill:#3e8e66; stroke:none;" d="M154 74L154 78C154.71 76.2405 154.71 75.7595 154 74z"/>
<path style="fill:#1eb067; stroke:none;" d="M34 75C32.7605 78.4001 32.0848 81.3772 32 85C35.2097 82.729 35.9433 78.3836 34 75z"/>
<path style="fill:#00ff00; stroke:none;" d="M145 75L146 76L145 75z"/>
<path style="fill:#05bc6c; stroke:none;" d="M150 75C148.337 80.0684 146.157 84.5988 146 90C150.76 86.9384 153.316 79.9398 150 75z"/>
<path style="fill:#15995d; stroke:none;" d="M36 76C35.3005 77.9583 35.0607 78.9495 35 81C36.7582 79.4255 37.9056 78.0843 39 76L36 76z"/>
<path style="fill:#49926d; stroke:none;" d="M37 78C31.6149 87.2613 29.0012 97.3506 29 108C31.0555 104.569 30.826 100.821 31.7492 97C33.1633 91.148 38.0628 83.9604 37 78z"/>
<path style="fill:#5a7f6d; stroke:none;" d="M107 78C105.67 79.7525 104.753 80.6697 103 82C106.788 84.0151 108.709 81.5802 110 78L107 78z"/>
<path style="fill:#048b49; stroke:none;" d="M152 79L151 84C152.318 82.0738 152.651 81.2342 152 79z"/>
<path style="fill:#5aa988; stroke:none;" d="M144 80C142.102 90.6495 134.781 99.252 129 108C138.825 104.833 143.455 88.9642 146 80L144 80z"/>
<path style="fill:#49926d; stroke:none;" d="M153.333 80.6667C153.278 80.7223 153.222 81.7778 153.667 81.3333C153.722 81.2778 153.778 80.2222 153.333 80.6667z"/>
<path style="fill:#36976c; stroke:none;" d="M152 82C150.717 85.3315 149.53 88.46 149 92C151.342 89.0976 153.09 85.6973 152 82z"/>
<path style="fill:#2d9b6c; stroke:none;" d="M31 83C30.2091 86.8358 29.1722 90.13 30 94C32.4552 90.5533 33.3943 86.6626 31 83z"/>
<path style="fill:#5eae86; stroke:none;" d="M90 92C95.5229 93.4495 100.747 86.9078 105 84C99.8002 82.896 94.2497 89.3536 90 92z"/>
<path style="fill:#4d9980; stroke:none;" d="M106 83C105.043 84.5167 104.613 85.3385 104 87C105.63 85.4852 106.163 85.1447 106 83z"/>
<path style="fill:#37885f; stroke:none;" d="M96 93C100.25 91.0122 102.847 88.1465 105 84C100.717 85.9685 97.8554 88.6451 96 93z"/>
<path style="fill:#068c4f; stroke:none;" d="M150.333 84.6667C150.278 84.7223 150.222 85.7777 150.667 85.3333C150.722 85.2778 150.778 84.2222 150.333 84.6667z"/>
<path style="fill:#00ff00; stroke:none;" d="M99 85L100 86L99 85z"/>
<path style="fill:#808080; stroke:none;" d="M103 87L104 88L103 87z"/>
<path style="fill:#0c9258; stroke:none;" d="M149.333 87.6667C149.278 87.7223 149.222 88.7777 149.667 88.3333C149.722 88.2778 149.778 87.2222 149.333 87.6667z"/>
<path style="fill:#139f62; stroke:none;" d="M148 89C146.561 91.6349 145.644 94.0658 145 97C147.379 94.6165 148.923 92.3716 148 89z"/>
<path style="fill:#1f804b; stroke:none;" d="M96 90C94.1013 91.6025 92.5418 93.0678 91 95C93.64 93.9495 96.0783 93.0442 96 90z"/>
<path style="fill:#479b79; stroke:none;" d="M148 92C146.273 95.6992 144.158 99.064 143 103C146.2 99.8969 148.241 96.0811 150 92L148 92z"/>
<path style="fill:#56ac74; stroke:none;" d="M74 101C79.5686 102.264 86.9989 96.3697 92 94C86.4879 92.4885 78.7036 98.2547 74 101z"/>
<path style="fill:#408c59; stroke:none;" d="M93 95C94.58 94.3164 94.7772 94.1952 96 93C94.42 93.6836 94.2228 93.8048 93 95z"/>
<path style="fill:#1e895d; stroke:none;" d="M29 94C28.7817 95.6865 28.7761 96.3161 29 98C29.7102 96.2405 29.7102 95.7595 29 94z"/>
<path style="fill:#00ffff; stroke:none;" d="M138 94L139 95L138 94z"/>
<path style="fill:#13864c; stroke:none;" d="M87 98L91 96C88.6918 95.4424 88.2436 96.0036 87 98z"/>
<path style="fill:#359465; stroke:none;" d="M88 97C90.1403 97.4103 90.9625 96.9685 93 96C90.8597 95.5897 90.0375 96.0315 88 97z"/>
<path style="fill:#2f8c58; stroke:none;" d="M86 96L82 99C84.4578 99.6464 85.5422 99.6464 88 99C87.3087 97.6116 87.0154 97.1394 86 96z"/>
<path style="fill:#007443; stroke:none;" d="M144.333 97.6667C144.278 97.7223 144.222 98.7777 144.667 98.3333C144.722 98.2778 144.778 97.2222 144.333 97.6667z"/>
<path style="fill:#1c7a53; stroke:none;" d="M28 98L28 103C28.8299 100.97 28.8299 100.03 28 98z"/>
<path style="fill:#199b5d; stroke:none;" d="M70 104C68.1723 109.817 58.9397 112.233 55 117C65.7044 113.34 74.4883 105.313 85 101C80.384 97.9465 74.5989 102.123 70 104z"/>
<path style="fill:#08894f; stroke:none;" d="M143.333 99.6667C143.278 99.7223 143.222 100.778 143.667 100.333C143.722 100.278 143.778 99.2222 143.333 99.6667z"/>
<path style="fill:#55926d; stroke:none;" d="M26 100C25.9152 104.108 23.6577 110.064 27 113C26.7063 108.67 27.6977 104.046 26 100z"/>
<path style="fill:#3b8060; stroke:none;" d="M27 101C26.9905 104.455 26.802 107.632 26 111L30 111C29.5348 107.401 29.0849 104 27 101z"/>
<path style="fill:#09925c; stroke:none;" d="M136.333 101.667C136.278 101.722 136.222 102.778 136.667 102.333C136.722 102.278 136.778 101.222 136.333 101.667z"/>
<path style="fill:#2c9167; stroke:none;" d="M142 101C140.957 103.095 140.397 104.699 140 107C141.772 104.972 142.542 103.664 142 101z"/>
<path style="fill:#479c71; stroke:none;" d="M58 109C63.016 110.173 69.3412 104.94 74 103C68.8882 101.598 62.3494 106.461 58 109z"/>
<path style="fill:#558e71; stroke:none;" d="M142.333 103.667C142.278 103.722 142.222 104.778 142.667 104.333C142.722 104.278 142.778 103.222 142.333 103.667z"/>
<path style="fill:#55aa7f; stroke:none;" d="M76.6667 104.333C76.2222 104.778 77.2778 104.722 77.3333 104.667C77.7778 104.222 76.7222 104.278 76.6667 104.333z"/>
<path style="fill:#666666; stroke:none;" d="M25.3333 105.667C25.2778 105.722 25.2222 106.778 25.6667 106.333C25.7222 106.278 25.7778 105.222 25.3333 105.667z"/>
<path style="fill:#24ad69; stroke:none;" d="M61 109C64.8212 110.31 67.7979 108.083 71 106C67.3258 104.992 64.1695 107.159 61 109z"/>
<path style="fill:#4ba578; stroke:none;" d="M74.6667 105.333C74.2222 105.778 75.2778 105.722 75.3333 105.667C75.7778 105.222 74.7222 105.278 74.6667 105.333z"/>
<path style="fill:#1dad72; stroke:none;" d="M133 105L128 113L132 111C130.814 112.186 130.472 112.584 130 114L137 111C136.206 108.32 135.076 106.878 133 105z"/>
<path style="fill:#0b8353; stroke:none;" d="M139 105C138.014 106.479 138 106.203 138 108C139.289 106.557 139.401 106.766 139 105z"/>
<path style="fill:#558877; stroke:none;" d="M139 107C138.043 108.517 137.613 109.338 137 111C138.63 109.485 139.163 109.145 139 107z"/>
<path style="fill:#559b7c; stroke:none;" d="M128 108C123.853 113.143 118.348 117.155 113 121C119.68 122.297 127.528 112.915 131 108L128 108z"/>
<path style="fill:#006d43; stroke:none;" d="M131 108L132 109L131 108z"/>
<path style="fill:#006a3a; stroke:none;" d="M137 108L138 109L137 108z"/>
<path style="fill:#558871; stroke:none;" d="M28 110L28 115C29.1433 112.845 29.2048 112.098 28 110z"/>
<path style="fill:#59ac80; stroke:none;" d="M41 124L58 111C51.7693 110.097 43.4711 118.811 41 124z"/>
<path style="fill:#15a25d; stroke:none;" d="M56 113L61 111C58.4913 110.434 57.7802 111.152 56 113z"/>
<path style="fill:#18b86e; stroke:none;" d="M37 137C40.768 133.333 44.2246 129.306 45 124C49.3454 123.443 51.7676 121.198 53 117C54.1863 118.036 54.6036 118.339 56 119C56.4703 114.782 59.6681 113.262 63 111C52.4396 109.304 35.3659 126.797 37 137z"/>
<path style="fill:#00ff00; stroke:none;" d="M126 110L127 111L126 110z"/>
<path style="fill:#4b7260; stroke:none;" d="M27 111C26.7658 113.486 26.8132 114.82 28 117C28.2266 114.549 28.1161 113.186 27 111z"/>
<path style="fill:#40bf80; stroke:none;" d="M64.6667 111.333C64.2222 111.778 65.2778 111.722 65.3333 111.667C65.7778 111.222 64.7222 111.278 64.6667 111.333z"/>
<path style="fill:#0ba56f; stroke:none;" d="M105 129C110.488 130.527 115.651 125.778 121 125C120.402 123.805 120.534 124.023 119 123C123.759 120.591 127.782 118.247 132 115C130.922 113.152 131.051 113.034 132 111C121.934 114.685 113.746 122.974 105 129z"/>
<path style="fill:#2d8c6d; stroke:none;" d="M129 118C132.561 116.337 134.725 114.195 137 111C133.014 112.138 130.966 114.406 129 118z"/>
<path style="fill:#0d7348; stroke:none;" d="M127 112L128 113L127 112z"/>
<path style="fill:#808080; stroke:none;" d="M62 113L63 114L62 113z"/>
<path style="fill:#046a3b; stroke:none;" d="M126 113L127 114L126 113z"/>
<path style="fill:#808080; stroke:none;" d="M26.3333 114.667C26.2778 114.722 26.2222 115.778 26.6667 115.333C26.7222 115.278 26.7778 114.222 26.3333 114.667z"/>
<path style="fill:#71aa71; stroke:none;" d="M56 118C57.9486 117.064 58.5502 116.608 60 115C58.0515 115.936 57.4498 116.392 56 118z"/>
<path style="fill:#026746; stroke:none;" d="M129 116L130 117L129 116z"/>
<path style="fill:#00ffff; stroke:none;" d="M46 117L47 118L46 117z"/>
<path style="fill:#12894f; stroke:none;" d="M53.3333 117.667C53.2778 117.722 53.2222 118.778 53.6667 118.333C53.7222 118.278 53.7778 117.222 53.3333 117.667z"/>
<path style="fill:#55aa7f; stroke:none;" d="M128.667 118.333C128.222 118.778 129.278 118.722 129.333 118.667C129.778 118.222 128.722 118.278 128.667 118.333z"/>
<path style="fill:#479970; stroke:none;" d="M50 124C52.1357 122.451 53.4511 121.136 55 119C52.3134 120.324 51.3241 121.313 50 124z"/>
<path style="fill:#808080; stroke:none;" d="M127.667 119.333C127.222 119.778 128.278 119.722 128.333 119.667C128.778 119.222 127.722 119.278 127.667 119.333z"/>
<path style="fill:#037a50; stroke:none;" d="M119 124C121.222 123.19 122.99 122.261 125 121C122.112 120.59 120.885 121.847 119 124z"/>
<path style="fill:#5e9479; stroke:none;" d="M121 125C123.486 123.545 125.173 122.218 127 120C124.034 121.174 122.535 122.204 121 125z"/>
<path style="fill:#1a9660; stroke:none;" d="M44 121C43.0427 122.517 42.6128 123.339 42 125C43.63 123.485 44.1631 123.145 44 121z"/>
<path style="fill:#2c9864; stroke:none;" d="M49 122C47.3333 123.276 46.9484 123.636 45 124L45 128C47.5766 126.394 49.6869 125.18 49 122z"/>
<path style="fill:#00ffff; stroke:none;" d="M52 122L53 123L52 122z"/>
<path style="fill:#3d9072; stroke:none;" d="M105 126C108.359 126.56 111.11 124.678 114 123C110.641 122.44 107.89 124.322 105 126z"/>
<path style="fill:#00ff00; stroke:none;" d="M39 124L40 125L39 124z"/>
<path style="fill:#4ca17b; stroke:none;" d="M28 144C33.2422 138.443 37.7431 130.436 42 124C34.9977 127.335 29.4494 136.483 28 144z"/>
<path style="fill:#006a41; stroke:none;" d="M109.667 125.333C109.222 125.778 110.278 125.722 110.333 125.667C110.778 125.222 109.722 125.278 109.667 125.333z"/>
<path style="fill:#337f5f; stroke:none;" d="M115 127C117.092 126.594 117.02 126.783 118 125C116.42 125.684 116.223 125.805 115 127z"/>
<path style="fill:#55957f; stroke:none;" d="M118.667 125.333C118.222 125.778 119.278 125.722 119.333 125.667C119.778 125.222 118.722 125.278 118.667 125.333z"/>
<path style="fill:#4e906f; stroke:none;" d="M47 126C45.4269 128.115 44.6482 129.47 44 132C45.8937 130.069 47.157 128.706 47 126z"/>
<path style="fill:#006d44; stroke:none;" d="M107.667 126.333C107.222 126.778 108.278 126.722 108.333 126.667C108.778 126.222 107.722 126.278 107.667 126.333z"/>
<path style="fill:#00ff00; stroke:none;" d="M118 126L119 127L118 126z"/>
<path style="fill:#428c73; stroke:none;" d="M96 130C99.2436 130.89 101.952 129.241 105 128C101.756 127.11 99.0485 128.759 96 130z"/>
<path style="fill:#148d62; stroke:none;" d="M94 134L97 135L108 131L105 129L108 128C103.301 126.712 97.1473 130.564 94 134z"/>
<path style="fill:#609f80; stroke:none;" d="M115.667 127.333C115.222 127.778 116.278 127.722 116.333 127.667C116.778 127.222 115.722 127.278 115.667 127.333z"/>
<path style="fill:#006b3d; stroke:none;" d="M44 128L45 129L44 128z"/>
<path style="fill:#01744a; stroke:none;" d="M110.667 128.333C110.222 128.778 111.278 128.722 111.333 128.667C111.778 128.222 110.722 128.278 110.667 128.333z"/>
<path style="fill:#4c9276; stroke:none;" d="M106 131C109.244 131.89 111.952 130.241 115 129C111.756 128.11 109.048 129.759 106 131z"/>
<path style="fill:#1d8958; stroke:none;" d="M43 129C42.0143 130.479 42 130.203 42 132C43.7662 131.021 43.9554 130.778 43 129z"/>
<path style="fill:#0a774e; stroke:none;" d="M108.667 129.333C108.222 129.778 109.278 129.722 109.333 129.667C109.778 129.222 108.722 129.278 108.667 129.333z"/>
<path style="fill:#27ae76; stroke:none;" d="M36 131C34.9519 132.856 34.4875 133.944 34 136C35.8476 134.22 36.5661 133.509 36 131z"/>
<path style="fill:#2f9068; stroke:none;" d="M86 135C91.3879 134.953 95.5567 136.196 101 135C97.9055 133.854 94.3242 134.278 91 134L96 132C92.4186 130.912 88.2755 131.997 86 135z"/>
<path style="fill:#219a68; stroke:none;" d="M41 132C38.6801 134.791 37.6182 137.43 37 141C39.1746 138.399 41.3259 135.437 41 132z"/>
<path style="fill:#4e8976; stroke:none;" d="M42 132L42 134C43.6352 133.455 43.4549 133.635 44 132L42 132z"/>
<path style="fill:#00683d; stroke:none;" d="M94.6667 132.333C94.2222 132.778 95.2778 132.722 95.3333 132.667C95.7778 132.222 94.7222 132.278 94.6667 132.333z"/>
<path style="fill:#016e47; stroke:none;" d="M100.667 132.333C100.222 132.778 101.278 132.722 101.333 132.667C101.778 132.222 100.722 132.278 100.667 132.333z"/>
<path style="fill:#4a8a75; stroke:none;" d="M104.667 132.333C104.222 132.778 105.278 132.722 105.333 132.667C105.778 132.222 104.722 132.278 104.667 132.333z"/>
<path style="fill:#006d42; stroke:none;" d="M91 133C92.2484 133.685 92.5484 133.749 94 134C92.7517 133.315 92.4516 133.251 91 133z"/>
<path style="fill:#006c45; stroke:none;" d="M97.6667 133.333C97.2223 133.778 98.2778 133.722 98.3333 133.667C98.7778 133.222 97.7222 133.278 97.6667 133.333z"/>
<path style="fill:#478f70; stroke:none;" d="M41 134C39.6825 136.327 38.7392 138.433 38 141C40.1506 138.848 41.5051 137.07 41 134z"/>
<path style="fill:#00ff00; stroke:none;" d="M42 134L43 135L42 134z"/>
<path style="fill:#52a47f; stroke:none;" d="M78 137L86 135C82.913 133.895 80.0821 134.425 78 137z"/>
<path style="fill:#127248; stroke:none;" d="M80 136L80 138C83.7127 137.813 89.1236 138.09 90 134L80 136z"/>
<path style="fill:#006a41; stroke:none;" d="M94.6667 134.333C94.2222 134.778 95.2778 134.722 95.3333 134.667C95.7778 134.222 94.7222 134.278 94.6667 134.333z"/>
<path style="fill:#07a970; stroke:none;" d="M33 135C30.7791 140.009 24.1443 152.684 32 154C32.8958 149.674 33.6921 146.054 37 143C36.9763 138.96 37.3545 136.249 33 135z"/>
<path style="fill:#03653e; stroke:none;" d="M90.6667 135.333C90.2222 135.778 91.2778 135.722 91.3333 135.667C91.7778 135.222 90.7222 135.278 90.6667 135.333z"/>
<path style="fill:#68aa84; stroke:none;" d="M69 137C72.0467 138.243 74.807 137.591 78 137C74.9992 135.828 72.1592 136.602 69 137z"/>
<path style="fill:#449977; stroke:none;" d="M84 137C87.2244 139.069 90.384 137.743 94 137C90.8077 135.855 87.3809 136.855 84 137z"/>
<path style="fill:#00ff00; stroke:none;" d="M66 137L67 138L66 137z"/>
<path style="fill:#539270; stroke:none;" d="M67 137C68.465 139.122 69.4569 139.474 72 140C70.3369 138.497 69.104 137.801 67 137z"/>
<path style="fill:#045127; stroke:none;" d="M72 138C74.8064 139.146 77.0713 138.692 80 138C77.2436 136.923 74.8932 137.468 72 138z"/>
<path style="fill:#00ff00; stroke:none;" d="M60 138L61 139L60 138z"/>
<path style="fill:#667d6c; stroke:none;" d="M59 140C61.4181 140.722 63.4716 140.948 66 141C63.5435 138.935 61.8526 138.407 59 140z"/>
<path style="fill:#64a283; stroke:none;" d="M62 138C63.7691 138.779 65.0359 138.912 67 139C65.231 138.221 63.9641 138.088 62 138z"/>
<path style="fill:#1f673e; stroke:none;" d="M70.6667 138.333C70.2222 138.778 71.2778 138.722 71.3333 138.667C71.7778 138.222 70.7222 138.278 70.6667 138.333z"/>
<path style="fill:#51a882; stroke:none;" d="M72 139C76.1374 140.736 80.6884 139.8 85 139C80.8832 137.289 76.3531 138.813 72 139z"/>
<path style="fill:#2a5f42; stroke:none;" d="M65 139C66.5061 139.683 67.3148 139.826 69 140C67.494 139.317 66.6852 139.174 65 139z"/>
<path style="fill:#077147; stroke:none;" d="M36.3333 140.667C36.2778 140.722 36.2222 141.778 36.6667 141.333C36.7222 141.278 36.7778 140.222 36.3333 140.667z"/>
<path style="fill:#00ffff; stroke:none;" d="M59 140L60 141L59 140z"/>
<path style="fill:#748b74; stroke:none;" d="M66 140C68.8897 141.213 71.8741 140.998 75 141C72.1103 139.787 69.1259 140.002 66 140z"/>
<path style="fill:#5a8778; stroke:none;" d="M37 141L36 146C37.3182 144.074 37.6513 143.234 37 141z"/>
<path style="fill:#00ffff; stroke:none;" d="M27 143L28 144L27 143z"/>
<path style="fill:#0d996a; stroke:none;" d="M29 143C26.9686 147.369 26.0431 151.183 26 156L30 156C27.8897 151.217 30.6603 147.43 29 143z"/>
<path style="fill:#118a5f; stroke:none;" d="M35 143C33.9877 145.373 33.3785 147.449 33 150C34.8361 147.692 35.7974 145.889 35 143z"/>
<path style="fill:#44987d; stroke:none;" d="M27 144C25.2131 148.632 23.435 153.018 23 158C25.5767 154.381 28.2205 148.386 27 144z"/>
<path style="fill:#498774; stroke:none;" d="M35 146C33.0025 150.505 32.0169 154.052 32 159C30.3648 158.455 30.5451 158.635 30 157L24 158C32.0891 164.011 37.1431 153.248 35 146z"/>
<path style="fill:#00ff00; stroke:none;" d="M36 146L37 147L36 146z"/>
<path style="fill:#178761; stroke:none;" d="M25 154L24 158L32 158L32 154C29.1844 154.99 27.7256 155.326 25 154z"/>
<path style="fill:#186049; stroke:none;" d="M30.6667 158.333C30.2222 158.778 31.2778 158.722 31.3333 158.667C31.7778 158.222 30.7222 158.278 30.6667 158.333z"/>
</svg>
